HIERARCHY
ROOT Pelvis
{
	OFFSET 0.000000 0.000000 0.000000
	CHANNELS 6 Xposition Yposition Zposition Xrotation Yrotation Zrotation
	JOINT LeftUpLeg_virtual
	{
		OFFSET 0.000000 0.000000 0.000000
		CHANNELS 3 Xrotation Yrotation Zrotation
		JOINT LeftUpLeg
		{
			OFFSET 18.735201 -5.666702 -4.541200
			CHANNELS 3 Xrotation Yrotation Zrotation
			JOINT LeftLeg
			{
				OFFSET -0.021200 -31.938179 0.493100
				CHANNELS 3 Xrotation Yrotation Zrotation
				JOINT LeftFoot
				{
					OFFSET 0.021200 -31.938179 -4.336299
					CHANNELS 3 Xrotation Yrotation Zrotation
					JOINT LeftToeBase
					{
						OFFSET 0.943001 -26.722000 15.023500
						CHANNELS 3 Xrotation Yrotation Zrotation
						End Site
						{
							OFFSET 0 0 0
						}
					}
				}
			}
		}
	}
	JOINT RightUpLeg_virtual
	{
		OFFSET 0.000000 0.000000 0.000000
		CHANNELS 3 Xrotation Yrotation Zrotation
		JOINT RightUpLeg
		{
			OFFSET -18.735201 -5.666702 -4.541200
			CHANNELS 3 Xrotation Yrotation Zrotation
			JOINT RightLeg
			{
				OFFSET 0.018946 -31.938133 0.493100
				CHANNELS 3 Xrotation Yrotation Zrotation
				JOINT RightFoot
				{
					OFFSET -0.018946 -31.938126 -4.336299
					CHANNELS 3 Xrotation Yrotation Zrotation
					JOINT RightToeBase
					{
						OFFSET -0.943001 -26.722004 15.023500
						CHANNELS 3 Xrotation Yrotation Zrotation
						End Site
						{
							OFFSET 0 0 0
						}
					}
				}
			}
		}
	}
	JOINT Hips_virtual
	{
		OFFSET 0.000000 0.000000 0.000000
		CHANNELS 3 Xrotation Yrotation Zrotation
		JOINT Hips
		{
			OFFSET -0.000000 -0.000000 -0.000000
			CHANNELS 3 Xrotation Yrotation Zrotation
			JOINT Spine
			{
				OFFSET 0.000000 10.199997 -0.299500
				CHANNELS 3 Xrotation Yrotation Zrotation
				JOINT Spine1
				{
					OFFSET 0.000000 11.900002 -1.516600
					CHANNELS 3 Xrotation Yrotation Zrotation
					JOINT Spine2
					{
						OFFSET 0.000000 13.600006 -2.842500
						CHANNELS 3 Xrotation Yrotation Zrotation
						JOINT Neck_virtual
						{
							OFFSET 0.000000 0.000000 0.000000
							CHANNELS 3 Xrotation Yrotation Zrotation
							JOINT Neck
							{
								OFFSET 0.000000 9.624100 -2.890100
								CHANNELS 3 Xrotation Yrotation Zrotation
								JOINT Head
								{
									OFFSET 0.000000 14.068802 -1.351900
									CHANNELS 3 Xrotation Yrotation Zrotation
									End Site
									{
										OFFSET 0 0 0
									}
								}
							}
						}
						JOINT LeftShoulder_virtual
						{
							OFFSET 0.000000 0.000000 0.000000
							CHANNELS 3 Xrotation Yrotation Zrotation
							JOINT LeftShoulder
							{
								OFFSET 15.263000 10.923401 -0.547700
								CHANNELS 3 Xrotation Yrotation Zrotation
								JOINT LeftArm
								{
									OFFSET 25.438599 -2.830597 -13.032500
									CHANNELS 3 Xrotation Yrotation Zrotation
									JOINT LeftForeArm
									{
										OFFSET 29.960503 0.000000 0.000000
										CHANNELS 3 Xrotation Yrotation Zrotation
										JOINT LeftHand
										{
											OFFSET 27.849251 0.000000 0.000000
											CHANNELS 3 Xrotation Yrotation Zrotation
											End Site
											{
												OFFSET 0 0 0
											}
										}
									}
								}
							}
						}
						JOINT RightShoulder_virtual
						{
							OFFSET 0.000000 0.000000 0.000000
							CHANNELS 3 Xrotation Yrotation Zrotation
							JOINT RightShoulder
							{
								OFFSET -15.263000 10.923401 -0.547700
								CHANNELS 3 Xrotation Yrotation Zrotation
								JOINT RightArm
								{
									OFFSET -25.438599 -2.830597 -13.032500
									CHANNELS 3 Xrotation Yrotation Zrotation
									JOINT RightForeArm
									{
										OFFSET -29.960503 0.000000 0.000000
										CHANNELS 3 Xrotation Yrotation Zrotation
										JOINT RightHand
										{
											OFFSET -27.849251 0.000000 0.000000
											CHANNELS 3 Xrotation Yrotation Zrotation
											End Site
											{
												OFFSET 0 0 0
											}
										}
									}
								}
							}
						}
					}
				}
			}
		}
	}
}
MOTION
Frames: 4
Frame Time: 0.03333333
-0.114125 91.587418 3.813221 0.000000 0.000000 0.000000 -6.390772 -2.590239 4.077813 -16.738048 9.307263 7.707351 20.856640 5.684291 2.151415 4.631380 3.739950 -9.964177 0.000000 0.000000 0.000000 -6.735666 -1.381965 3.922369 3.220737 -17.392925 -5.688237 19.009031 -9.639638 -3.771006 -19.706173 -7.829920 11.455858 0.000000 0.000000 0.000000 -6.936373 -2.169541 4.223745 -0.285941 -0.179026 -0.929376 4.409841 2.163249 -1.993087 1.184839 0.331666 -0.485277 0.000000 0.000000 0.000000 1.074074 0.789365 -0.855260 0.972281 0.698640 0.332342 0.000000 0.000000 0.000000 0.758858 0.803542 -0.895921 0.120659 -16.855840 -17.324713 10.219626 -3.290789 -35.809415 15.922747 -87.633964 15.817712 0.000000 0.000000 0.000000 1.080328 0.737662 -0.927270 1.087495 17.976486 11.011821 13.852466 25.678916 36.288187 -178.066269 79.934127 178.688759 0.000000 0.000000 0.000000 
0.082734 91.523468 3.926449 0.000000 0.000000 0.000000 -6.340290 -2.737189 4.087042 -16.822351 9.340456 7.664925 21.141001 5.562375 2.144569 4.412662 3.697414 -9.940212 0.000000 0.000000 0.000000 -6.734565 -1.499863 3.908473 3.069289 -17.352669 -5.901049 19.350536 -9.372952 -3.795550 -19.204332 -7.532281 11.777167 0.000000 0.000000 0.000000 -6.906131 -2.234616 4.232365 -0.277305 -0.201130 -0.866322 4.450668 2.127380 -1.993266 1.193623 0.282357 -0.461110 0.000000 0.000000 0.000000 1.088748 0.739960 -0.831588 0.991993 0.677631 0.293335 0.000000 0.000000 0.000000 0.763803 0.755826 -0.876242 0.139480 -16.717262 -17.313063 10.405046 -3.046663 -35.887276 16.276628 -87.621423 16.145546 0.000000 0.000000 0.000000 1.054336 0.688561 -0.897663 1.049139 18.043357 11.102956 13.943951 25.773734 36.555090 -178.319874 80.066210 178.910672 0.000000 0.000000 0.000000 
0.415897 91.375443 4.013588 0.000000 0.000000 0.000000 -6.242525 -3.019912 4.091518 -17.118469 9.380842 7.571847 21.808430 5.428362 2.167437 4.035848 3.955857 -9.774308 0.000000 0.000000 0.000000 -6.678939 -1.706784 3.890173 2.657174 -17.147849 -6.306109 20.273190 -9.072353 -3.871287 -19.133223 -7.388794 11.918257 0.000000 0.000000 0.000000 -6.839747 -2.446501 4.235062 -0.300461 -0.150849 -0.839752 4.517438 2.009265 -1.986761 1.210696 0.160589 -0.410068 0.000000 0.000000 0.000000 1.116763 0.619544 -0.778198 0.998361 0.648113 0.222752 0.000000 0.000000 0.000000 0.779164 0.632698 -0.831453 0.150201 -16.601116 -17.354642 10.719326 -2.486531 -35.964283 19.390596 -87.828405 19.235988 0.000000 0.000000 0.000000 1.035301 0.568304 -0.852361 1.015589 18.112041 11.165237 14.003026 26.184032 36.887454 -178.604502 80.353679 179.181106 0.000000 0.000000 0.000000 
0.843354 91.169144 4.062195 0.000000 0.000000 0.000000 -6.126053 -3.391865 4.080965 -17.607953 9.463762 7.427089 22.859888 5.285483 2.200576 3.410703 4.487034 -9.471053 0.000000 0.000000 0.000000 -6.552991 -1.981518 3.870204 2.037518 -16.843400 -6.851522 21.599911 -8.753057 -3.973178 -19.754673 -7.435471 11.899505 0.000000 0.000000 0.000000 -6.738699 -2.773181 4.226423 -0.346402 -0.074941 -0.864893 4.599886 1.813306 -1.978743 1.234202 -0.024283 -0.338221 0.000000 0.000000 0.000000 1.163068 0.440717 -0.701451 0.993333 0.611397 0.123941 0.000000 0.000000 0.000000 0.805665 0.446769 -0.762461 0.158448 -16.517865 -17.418946 11.122190 -1.655794 -35.989708 26.835540 -88.236304 26.664164 0.000000 0.000000 0.000000 1.025128 0.385384 -0.793872 0.993050 18.162786 11.171842 13.970162 26.824349 37.254912 -178.923799 80.792887 179.507603 0.000000 0.000000 0.000000 
